{"title":"Teen Facials XXX - All Disc - NEW 2014 - 1 SEPTEMBER  2014 ","uid":10945302,"size":4344126481,"categoryP":"porn","categoryS":"movies","magnet":"?xt=urn:btih:f64a8a21370704bcfafddb4cf2fc81256031ce1c&amp;dn=Teen+Facials+XXX+-+All+Disc+-+NEW+2014+-+1+SEPTEMBER++2014+&amp;tr=udp%3A%2F%2Ftracker.openbittorrent.com%3A80&amp;tr=udp%3A%2F%2Fopen.demonii.com%3A1337&amp;tr=udp%3A%2F%2Ftracker.coppersurfer.tk%3A6969&amp;tr=udp%3A%2F%2Fexodus.desync.com%3A6969","seeders":1,"leechers":0,"uploader":"iH2OSO4","files":-1,"time":1409593228,"description":"Teen Facials XXX - All Disc - NEW 2014 - 1 SEPTEMBER  2014 \n\nTeen Facials Featuring Jenni Vail!Over 5 Hours 40 Mins! 12 Creamed Teens! 2 Disc Set!These tight young teens are about to get nasty just for you! Watch Jenni Vail, Evi Fox, Allie James, Staci Silverstone, Naomi West and more cuties take a hot load of cum to the face! Don't miss out on this 2-disc set, because it's packed with amazing cumshots and pretty decorated faces!\n\nSOURCE :   &lt;a href=&quot; http://nuscotower.com/i/tf_545cf.html&quot; rel=&quot;nofollow&quot; target=&quot;_NEW&quot;&gt; http://nuscotower.com/i/tf_545cf.html&lt;/a&gt;\n\nGeneral\nTeen.Facials.DiSC.1.And.2.XXX.2014.DVDRip-eUDOXiU - 1.mp4\nFormat                           : MPEG-4\nFormat profile                   : Base Media\nCodec ID                         : isom\nFile size                        : 2.07 GiB\nDuration                         : 2h 58mn\nOverall bit rate                 : 1 662 Kbps\nEncoded date                     : UTC 2014-09-01 05:56:47\nTagged date                      : UTC 2014-09-01 05:56:47\n\nVideo\nID                               : 1\nFormat                           : MPEG-4 Visual\nFormat profile                   : Simple@L1\nFormat settings, BVOP            : No\nFormat settings, QPel            : No\nFormat settings, GMC             : No warppoints\nFormat settings, Matrix          : Default (H.263)\nCodec ID                         : 20\nDuration                         : 2h 58mn\nBit rate mode                    : Variable\nBit rate                         : 1 534 Kbps\nMaximum bit rate                 : 3 298 Kbps\nWidth                            : 856 pixels\nHeight                           : 480 pixels\nDisplay aspect ratio             : 16:9\nFrame rate mode                  : Constant\nFrame rate                       : 29.970 fps\nColor space                      : YUV\nChroma subsampling               : 4:2:0\nBit depth                        : 8 bits\nScan type                        : Progressive\nCompression mode                 : Lossy\nBits/(Pixel*Frame)               : 0.125\nStream size                      : 1.91 GiB (92%)\nWriting library                  : Lavc53.8.0\nEncoded date                     : UTC 2014-09-01 05:56:47\nTagged date                      : UTC 2014-09-01 05:59:01\n\nAudio\nID                               : 2\nFormat                           : AAC\nFormat/Info                      : Advanced Audio Codec\nFormat profile                   : LC\nCodec ID                         : 40\nDuration                         : 2h 58mn\nBit rate mode                    : Variable\nBit rate                         : 126 Kbps\nMaximum bit rate                 : 223 Kbps\nChannel(s)                       : 2 channels\nChannel positions                : Front: L R\nSampling rate                    : 44.1 KHz\nCompression mode                 : Lossy\nStream size                      : 160 MiB (8%)\nEncoded date                     : UTC 2014-09-01 05:58:30\nTagged date                      : UTC 2014-09-01 05:59:01\n\n/////////////////////\n\nGeneral\nTeen.Facials.DiSC.1.And.2.XXX.2014.DVDRip-eUDOXiU - 2.mp4\nFormat                           : MPEG-4\nFormat profile                   : Base Media\nCodec ID                         : isom\nFile size                        : 1.97 GiB\nDuration                         : 2h 49mn\nOverall bit rate                 : 1 663 Kbps\nEncoded date                     : UTC 2014-09-01 06:45:28\nTagged date                      : UTC 2014-09-01 06:45:28\n\nVideo\nID                               : 1\nFormat                           : MPEG-4 Visual\nFormat profile                   : Simple@L1\nFormat settings, BVOP            : No\nFormat settings, QPel            : No\nFormat settings, GMC             : No warppoints\nFormat settings, Matrix          : Default (H.263)\nCodec ID                         : 20\nDuration                         : 2h 49mn\nBit rate mode                    : Variable\nBit rate                         : 1 535 Kbps\nMaximum bit rate                 : 3 495 Kbps\nWidth                            : 856 pixels\nHeight                           : 480 pixels\nDisplay aspect ratio             : 16:9\nFrame rate mode                  : Constant\nFrame rate                       : 23.976 fps\nColor space                      : YUV\nChroma subsampling               : 4:2:0\nBit depth                        : 8 bits\nScan type                        : Progressive\nCompression mode                 : Lossy\nBits/(Pixel*Frame)               : 0.156\nStream size                      : 1.82 GiB (92%)\nWriting library                  : Lavc53.8.0\nEncoded date                     : UTC 2014-09-01 06:45:28\nTagged date                      : UTC 2014-09-01 06:47:57\n\nAudio\nID                               : 2\nFormat                           : AAC\nFormat/Info                      : Advanced Audio Codec\nFormat profile                   : LC\nCodec ID                         : 40\nDuration                         : 2h 49mn\nBit rate mode                    : Variable\nBit rate                         : 126 Kbps\nMaximum bit rate                 : 227 Kbps\nChannel(s)                       : 2 channels\nChannel positions                : Front: L R\nSampling rate                    : 44.1 KHz\nCompression mode                 : Lossy\nStream size                      : 153 MiB (8%)\nEncoded date                     : UTC 2014-09-01 06:47:22\nTagged date                      : UTC 2014-09-01 06:47:57\n","torrent":{"xt":"urn:btih:f64a8a21370704bcfafddb4cf2fc81256031ce1c","amp;dn":"Teen+Facials+XXX+-+All+Disc+-+NEW+2014+-+1+SEPTEMBER++2014+","amp;tr":["udp%3A%2F%2Ftracker.openbittorrent.com%3A80","udp%3A%2F%2Fopen.demonii.com%3A1337","udp%3A%2F%2Ftracker.coppersurfer.tk%3A6969","udp%3A%2F%2Fexodus.desync.com%3A6969"],"infoHash":"f64a8a21370704bcfafddb4cf2fc81256031ce1c","infoHashBuffer":{"type":"Buffer","data":[246,74,138,33,55,7,4,188,250,253,219,76,242,252,129,37,96,49,206,28]},"announce":[],"urlList":[]}}